{"asset":{"version":"2.0","generator":"Blockbench 5.1.3 glTF exporter"},"scenes":[{"nodes":[3],"name":"blockbench_export"}],"scene":0,"nodes":[{"name":"body","mesh":0},{"rotation":[0.13052619222005157,0,0,0.9914448613738104],"translation":[0,-0.5,0],"name":"stem","mesh":1},{"rotation":[0.13052619222005157,0,0,0.9914448613738104],"translation":[0,-0.5,0],"name":"stem","mesh":2},{"translation":[0,0.5,0],"name":"pumpkin","children":[0,1,2]}],"bufferViews":[{"buffer":0,"byteOffset":0,"byteLength":2160,"target":34962,"byteStride":12},{"buffer":0,"byteOffset":2160,"byteLength":2160,"target":34962,"byteStride":12},{"buffer":0,"byteOffset":4320,"byteLength":1440,"target":34962,"byteStride":8},{"buffer":0,"byteOffset":5760,"byteLength":480,"target":34963},{"buffer":0,"byteOffset":6240,"byteLength":288,"target":34962,"byteStride":12},{"buffer":0,"byteOffset":6528,"byteLength":288,"target":34962,"byteStride":12},{"buffer":0,"byteOffset":6816,"byteLength":192,"target":34962,"byteStride":8},{"buffer":0,"byteOffset":7008,"byteLength":72,"target":34963},{"buffer":0,"byteOffset":7080,"byteLength":288,"target":34962,"byteStride":12},{"buffer":0,"byteOffset":7368,"byteLength":288,"target":34962,"byteStride":12},{"buffer":0,"byteOffset":7656,"byteLength":192,"target":34962,"byteStride":8},{"buffer":0,"byteOffset":7848,"byteLength":72,"target":34963}],"buffers":[{"byteLength":7920,"uri":"data:application/octet-stream;base64,"}],"accessors":[{"bufferView":0,"componentType":5126,"count":180,"max":[0.5,0.5,0.47552812099456787],"min":[-0.5,-0.5,-0.47552812099456787],"type":"VEC3"},{"bufferView":1,"componentType":5126,"count":180,"max":[0.951056718826294,0.951056718826294,1],"min":[-0.951056718826294,-0.951056718826294,-1],"type":"VEC3"},{"bufferView":2,"componentType":5126,"count":180,"max":[0.515625,0.75],"min":[0,-0.006974995136260986],"type":"VEC2"},{"bufferView":3,"componentType":5123,"count":240,"max":[179],"min":[0],"type":"SCALAR"},{"bufferView":4,"componentType":5126,"count":24,"max":[-0.062437500804662704,1.1875,-0.1875],"min":[-0.0625,0.875,-0.3125],"type":"VEC3"},{"bufferView":5,"componentType":5126,"count":24,"max":[1,1,1],"min":[-1,-1,-1],"type":"VEC3"},{"bufferView":6,"componentType":5126,"count":24,"max":[0.03125,0.1250000149011612],"min":[0,0.062499985098838806],"type":"VEC2"},{"bufferView":7,"componentType":5123,"count":36,"max":[23],"min":[0],"type":"SCALAR"},{"bufferView":8,"componentType":5126,"count":24,"max":[0.0625,1.1875,-0.1875],"min":[-0.0625,0.875,-0.3125],"type":"VEC3"},{"bufferView":9,"componentType":5126,"count":24,"max":[1,1,1],"min":[-1,-1,-1],"type":"VEC3"},{"bufferView":10,"componentType":5126,"count":24,"max":[0.03125,0.1250000149011612],"min":[0,0.062499985098838806],"type":"VEC2"},{"bufferView":11,"componentType":5123,"count":36,"max":[23],"min":[0],"type":"SCALAR"}],"materials":[{"pbrMetallicRoughness":{"metallicFactor":0,"roughnessFactor":1,"baseColorTexture":{"index":0}},"alphaMode":"MASK","alphaCutoff":0.05,"doubleSided":true}],"textures":[{"sampler":0,"source":0,"name":"pumpkin.png"}],"samplers":[{"magFilter":9728,"minFilter":9728,"wrapS":33071,"wrapT":33071}],"images":[{"mimeType":"image/png","uri":"data:image/png;base64,"}],"meshes":[{"primitives":[{"mode":4,"attributes":{"POSITION":0,"NORMAL":1,"TEXCOORD_0":2},"indices":3,"material":0}]},{"primitives":[{"mode":4,"attributes":{"POSITION":4,"NORMAL":5,"TEXCOORD_0":6},"indices":7,"material":0}]},{"primitives":[{"mode":4,"attributes":{"POSITION":8,"NORMAL":9,"TEXCOORD_0":10},"indices":11,"material":0}]}]}